<svg width="30" height="23" viewBox="0 0 30 23" fill="none" xmlns="http://www.w3.org/2000/svg">
<path fill-rule="evenodd" clip-rule="evenodd" d="M29.0526 18.3558V23C21.9163 23 16.1565 17.1026 16.1565 9.84135V3.28045C16.1565 1.47436 17.6055 0 19.3805 0H25.8286C27.6036 0 29.0526 1.47436 29.0526 3.28045V9.84135C29.0526 11.6474 27.6036 13.1218 25.8286 13.1218H21.5178C22.8943 16.0337 25.7199 18.1346 29.0526 18.3558ZM0 9.84135V3.28045C0 1.47436 1.44901 0 3.22405 0H9.67214C11.4472 0 12.8962 1.47436 12.8962 3.28045V9.84135C12.8962 11.6474 11.4472 13.1218 9.67214 13.1218H5.39756C6.77412 16.0337 9.56346 18.0978 12.8962 18.3558V23C5.79604 23 0 17.1026 0 9.84135Z" fill="#C7C7D5"/>
</svg>
